# xmcd
#
# Track frame offsets: 
#        182
#        15362
#        33400
#        50812
#        70142
#        88960
#        107900
#        122667
#        140962
#        158682
#        172782
#        188322
#        208792
#        225387
#        244500
#        263867
#        279762
#
# Disc length: 3984 seconds
#
# Revision: 8
# Processed by: cddbd v1.5.2PL0 Copyright (c) Steve Scherf et al.
# Submitted via: ExactAudioCopyFreeDBPlugin 1.0
#
DISCID=e00f8e11
DTITLE=Various Artist - 25 Jahre ZDF-Hitparade - Jubiläumsausgabe - C
DTITLE=D2
DYEAR=1993
DGENRE=Pop
TTITLE0=Klaus Lage Band - 1000 und 1 Nacht
TTITLE1=Peter Schilling - Major Tom
TTITLE2=Nicki - Wegen dir
TTITLE3=Clowns and Helden - Ich liebe dich
TTITLE4=Mandy Winter - Julian
TTITLE5=Erste Allgemeine Verunsicherung - Küss die Hand, schöne Frau
TTITLE6=Blue System - My bed is too big
TTITLE7=Sandra - Secret land
TTITLE8=David Hasselhoff - Looking for freedom
TTITLE9=Engelbert - Red roses for my lady
TTITLE10=Die Flippers - Die rote Sonne von Barbados
TTITLE11=Stefan Waggershausen and Viktor Lazlo - Das erste Mal tut's imm
TTITLE11=er noch weh
TTITLE12=Matthias Reim - Verdammt ich lieb dich
TTITLE13=Chris Norman - If you need my love tonight
TTITLE14=Valerie's Garden - Das nächste Mal am Ende der Welt
TTITLE15=Wolfgang Petry - Du bist ein Wunder
TTITLE16=Ireen Sheer and Bernhard Brink - Du gehst fort
EXTD=YEAR: 1993
EXTT0=
EXTT1=
EXTT2=
EXTT3=
EXTT4=
EXTT5=
EXTT6=
EXTT7=
EXTT8=
EXTT9=
EXTT10=
EXTT11=
EXTT12=
EXTT13=
EXTT14=
EXTT15=
EXTT16=
PLAYORDER=
